inDegrees=no
num_controls=7
num_derivatives=13
num_iterations=36
num_multipliers=7
num_parameters=0
num_slacks=7
num_states=26
objective=0.469348
objective_accelerations=0.060933
objective_balance=0.000676
objective_effort=0.016722
objective_height=0.382050
objective_ligament=0.008966
solver_duration=487.711716
status=Solve_Succeeded
success=true
DataType=double
version=3
OpenSimVersion=4.5
endheader
time	/jointset/ground_pelvis/pelvis_tilt/value	/jointset/ground_pelvis/pelvis_tx/value	/jointset/ground_pelvis/pelvis_ty/value	/jointset/hip_l/hip_flexion_l/value	/jointset/hip_l/hip_adduction_l/value	/jointset/hip_l/hip_rotation_l/value	/jointset/back/lumbar_extension/value	/jointset/patellofemoral_l/patellar_flexion_l/value	/jointset/knee_l/knee_flexion_l/value	/jointset/knee_l/knee_adduction_l/value	/jointset/knee_l/knee_rotation_l/value	/jointset/ankle_l/ankle_angle_l/value	/jointset/subtalar_l/subtalar_angle_l/value	/jointset/ground_pelvis/pelvis_tilt/speed	/jointset/ground_pelvis/pelvis_tx/speed	/jointset/ground_pelvis/pelvis_ty/speed	/jointset/hip_l/hip_flexion_l/speed	/jointset/hip_l/hip_adduction_l/speed	/jointset/hip_l/hip_rotation_l/speed	/jointset/back/lumbar_extension/speed	/jointset/patellofemoral_l/patellar_flexion_l/speed	/jointset/knee_l/knee_flexion_l/speed	/jointset/knee_l/knee_adduction_l/speed	/jointset/knee_l/knee_rotation_l/speed	/jointset/ankle_l/ankle_angle_l/speed	/jointset/subtalar_l/subtalar_angle_l/speed	/forceset/tau_hip_flexion_l	/forceset/tau_hip_adduction_l	/forceset/tau_hip_rotation_l	/forceset/tau_knee_flexion_l	/forceset/tau_ankle_angle_l	/forceset/tau_subtalar_angle_l	/forceset/tau_lumbar_extension	lambda_cid13_p0	lambda_cid13_p1	lambda_cid13_p2	lambda_cid13_p3	lambda_cid13_p4	lambda_cid13_p5	lambda_cid14_p0	/jointset/ground_pelvis/pelvis_tilt/accel	/jointset/ground_pelvis/pelvis_tx/accel	/jointset/ground_pelvis/pelvis_ty/accel	/jointset/hip_l/hip_flexion_l/accel	/jointset/hip_l/hip_adduction_l/accel	/jointset/hip_l/hip_rotation_l/accel	/jointset/back/lumbar_extension/accel	/jointset/patellofemoral_l/patellar_flexion_l/accel	/jointset/knee_l/knee_flexion_l/accel	/jointset/knee_l/knee_adduction_l/accel	/jointset/knee_l/knee_rotation_l/accel	/jointset/ankle_l/ankle_angle_l/accel	/jointset/subtalar_l/subtalar_angle_l/accel	gamma_cid13_p0	gamma_cid13_p1	gamma_cid13_p2	gamma_cid13_p3	gamma_cid13_p4	gamma_cid13_p5	gamma_cid14_p0
1	-0.4518233195302718	-0.01000503743781011	0.6129792191730471	1.660518712307421	-0.3461305671322722	0.1268219767046996	-0.4361665146608579	1.440919898751814	1.440919898751922	0.04257711786565758	-0.1740239741158069	0.4002772587187893	0.2294416864867951	-0.1365082079860598	0.006514476196771704	0.04048429599393578	-0.005147160466822112	-0.002011469699232521	-0.06392107058606467	-0.002110905400002107	-0.1741931142818238	-0.1741931142818035	-0.004801098025188029	0.001074318442085346	-0.04678365665910707	-0.02855562763215944	-0.2359706915065202	0.08311488819736884	-0.008995421324271577	-0.2820659484479334	-0.00141150906454376	-0.01975199588873098	0.2065012562667037	-35.92668713389917	24.83412841111371	-15.62305782820939	2.760465766153929	-539.1749423935141	-28.2286861126629	-0.02428276013856854	1.519680948440553	0.2952894189393071	1.917670983027595	-6.525409202247967	-0.2130764852468006	-1.650993339411744	-0.00575724278056957	-5.413541711196827	-5.413541711196726	-0.6355951589427794	0.01490738818702536	-0.8544792898085738	-0.7839765951469303	-6.819226438919714e-09	-1.017006328716363e-07	-1.528320401365818e-08	-3.666165483182809e-09	-9.655479324825991e-09	-7.940778947864023e-08	-5.134319101196994e-09
1.01	-0.4531129870019508	-0.009925065415027828	0.6134797188328973	1.660141902521711	-0.3461607207387535	0.1261013499171706	-0.4361867953329056	1.438907736494326	1.438907736494329	0.04249720495267164	-0.1740110896287572	0.3997668079803535	0.2291179742624526	-0.1213993154595027	0.009492445601665393	0.05960590040872409	-0.07022449852892046	-0.00401576816933114	-0.08019600137429357	-0.001927885221393612	-0.2282261803880547	-0.2282261803880574	-0.01117860160634438	0.001497313731781833	-0.05530627967651279	-0.03617642692789058	-0.2365213833304008	0.08309690750463097	-0.009035540254703852	-0.2809139744668515	-0.001951877336762478	-0.0196525710855571	0.2068479079413266	-36.04983224796235	24.74766420952947	-15.53520362280431	2.644069061819831	-539.0128839410268	-28.17102867479198	-0.02430163174423833	1.510388579738296	0.3009264201836578	1.90794198667544	-6.500352047262154	-0.1935772693003626	-1.614513144891077	0.03293321661448678	-5.396214065004385	-5.396214065007894	-0.6384116488075149	0.05519554940889088	-0.8511294392403859	-0.749550054329878	-7.732732409845661e-09	-1.289657108697469e-07	-2.03020239682126e-08	-9.282471457622295e-09	-1.419920667652483e-08	-9.4360666656971e-08	-7.334043618451447e-09
1.02	-0.454250786513372	-0.009814938554412676	0.6141711419000886	1.659114028167547	-0.3462108114782239	0.1252182197825195	-0.4362047254894506	1.436355638574843	1.436355638574756	0.04235360026565853	-0.1739941351988173	0.3991711358854225	0.2287183703536435	-0.1061346159339611	0.01254544376334616	0.07866897746228406	-0.1353600741538727	-0.005998896295803401	-0.09642174001701562	-0.001640802305472735	-0.2821802466810124	-0.2821802466810392	-0.01753945283172316	0.001888307023397926	-0.06382792795526968	-0.0437339645253645	-0.2370720751544316	0.08307892681197933	-0.009075659185130876	-0.2797620004857536	-0.002492245608934486	-0.0195531462822245	0.2071945596157992	-36.17643700891267	24.65949227887193	-15.44443443068865	2.522842442222357	-538.9671752075354	-28.11343471727392	-0.02432259767005332	1.550842348237265	0.3102951702968872	1.905965510781955	-6.537056714818826	-0.2088424165216189	-1.641154910310459	0.01505530468214073	-5.397741748542193	-5.397741748542338	-0.6322646877872802	0.008506988570841688	-0.8542843420785285	-0.7713242554954648	-8.488944298165468e-09	-1.568661820003731e-07	-2.616959367462414e-08	-1.525046758613068e-08	-1.828241466817307e-08	-1.098853865722771e-07	-9.484083984344809e-09
1.03	-0.4552352924397527	-0.009673871831227874	0.6150527885301726	1.657434854442277	-0.3462806168934687	0.1241731954706477	-0.4362188585048521	1.433264546215403	1.433264546215326	0.04214642301354603	-0.1739734717326302	0.398490205284008	0.2282435111479257	-0.0907531894027517	0.01568399857565632	0.09763927791576911	-0.200450855098606	-0.007958097200848759	-0.1125649631309788	-0.001128431764100347	-0.336010038177792	-0.336010038177807	-0.02389705677021051	0.002233879749164876	-0.07236224425879556	-0.0512274408242715	-0.2375167408812036	0.08308841173716856	-0.009108807121467159	-0.2782869402457847	-0.003123947263574735	-0.01942224860607833	0.207504554851021	-36.30680508636956	24.54245024791267	-15.33094636551495	2.389338392629426	-538.6356544373459	-28.03631838593045	-0.02435118428175359	1.53379851817185	0.3180460118465479	1.889397220019955	-6.491517958997311	-0.1888347775318423	-1.598201387270752	0.07793328159818963	-5.371367456203412	-5.371367456201626	-0.6376910355014358	0.04599142592960904	-0.8536233015996649	-0.7367606031614363	-9.243551144826027e-09	-1.847731367343924e-07	-3.204582409278933e-08	-2.122205238968059e-08	-2.236092348267792e-08	-1.254159416175523e-07	-1.163361736910183e-08
1.04	-0.4560655829582967	-0.009500937484890323	0.6161235051462681	1.655105487072564	-0.3463698894877774	0.1229672798525703	-0.4362261467442919	1.429636002019804	1.42963600201977	0.04187563316447229	-0.1739496707369027	0.3977238079141423	0.2276940369220034	-0.0752915343672048	0.01891896839389547	0.1164829746646942	-0.2653988030312191	-0.009892332107320189	-0.1286000012582006	-0.0002718471133987124	-0.3896706139128727	-0.3896706139128749	-0.03026197225359185	0.002515812928932206	-0.08092128164671923	-0.0586569685661009	-0.2379614066084002	0.08309789666229599	-0.009141955057209817	-0.2768118800057839	-0.003755648918158877	-0.01929135093000682	0.2078145500858007	-36.44082799898737	24.42378032814793	-15.21460822050106	2.250525560389035	-538.4216166937418	-27.96023843163528	-0.02438189192169452	1.566888049104573	0.3295781714828421	1.880644769870004	-6.508490112394858	-0.203849216806913	-1.619517912962248	0.08389812654838899	-5.363898596202439	-5.363898596202373	-0.6337269967660928	-0.004220920629137535	-0.8592285589578121	-0.7585345440798932	-9.861908816360959e-09	-2.136631322556132e-07	-4.088950312846423e-08	-2.740667753127516e-08	-2.598156737921235e-08	-1.432867368794634e-07	-1.335229241252445e-08
1.05	-0.4567410850392136	-0.009295136202884802	0.6173818949408404	1.652127813335933	-0.3464783595414039	0.1216014909601665	-0.4362225926517646	1.425471866911798	1.425471866911774	0.04154130826578843	-0.1739234290682745	0.3968716619813025	0.2270706150043911	-0.05981949245403553	0.02226092034563089	0.135160799275538	-0.3300657917377721	-0.0117955766622763	-0.1445467293148739	0.001097059303837834	-0.4431113602329606	-0.4431113602329633	-0.03658895516535946	0.002715754060966986	-0.08951497492352566	-0.06601375558646597	-0.2383064121130629	0.08313887273835933	-0.009170149346573186	-0.2750013949846824	-0.004479177626702522	-0.01913198429804806	0.2080988277871256	-36.57869403499548	24.27780323583044	-15.07607945573512	2.094510385686567	-537.9152788821574	-27.8598516846449	-0.0244203771335124	1.535768598779608	0.3394417760537873	1.856217606659657	-6.435282743989484	-0.1826310073571303	-1.580617937357625	0.1805459534757441	-5.327402502976579	-5.327402502976817	-0.6301076605537318	0.0295655124764598	-0.8605133850826323	-0.722157118734327	-1.047600870117322e-08	-2.425838478014341e-07	-4.982591493343628e-08	-3.359796018343362e-08	-2.958790299706021e-08	-1.612306646481444e-07	-1.505750313278037e-08
1.06	-0.4572621854337201	-0.00905532778755507	0.6188260362415133	1.648505573813336	-0.3466056758270881	0.1200765612501062	-0.4362019176842364	1.420774676369978	1.42077467637	0.0411441287936602	-0.1738956952118265	0.3959333643811035	0.2263740439490301	-0.04441119708663696	0.0257203950587373	0.1536332758849984	-0.3943119602125026	-0.01366157851789788	-0.1604281647850558	0.003152327887641563	-0.4962817006756316	-0.4962817006756352	-0.04283288696400949	0.002814250487266648	-0.09815161512195056	-0.07328679611561152	-0.2386514176181902	0.08317984881427903	-0.009198343635550934	-0.2731909099635673	-0.005202706335203909	-0.01897261766629521	0.2083831054879658	-36.7204526357222	24.13027998299014	-14.93475949042093	1.932759523844602	-537.5276566023756	-27.76182110830178	-0.02446108897076521	1.55413873995026	0.3530827237571841	1.839575169593389	-6.424326066030457	-0.1964006769400638	-1.606459395664004	0.2211705598623002	-5.309817420719099	-5.309817420719106	-0.6171167741425847	-0.02450986177615486	-0.8678179432812611	-0.74178524583591	-1.122284635292614e-08	-2.68033101585014e-07	-5.571876133889838e-08	-3.865524151208181e-08	-3.305111742388308e-08	-1.752124768696131e-07	-1.693822847494386e-08
1.07	-0.4576295727616045	-0.008780310910846504	0.6204537715337497	1.644243228586822	-0.3467514559017411	0.1183932239786395	-0.4361570604610236	1.415547283663695	1.41554728366367	0.04068490825012158	-0.1738675208042424	0.3949084505090893	0.2256051691752387	-0.02908466461746493	0.02930515942178505	0.1718690102001892	-0.4580597413484762	-0.01548647410879037	-0.1762199154716123	0.005956667211522299	-0.5491367701637001	-0.5491367701636641	-0.04899881590131428	0.002802063341685583	-0.1068412230071036	-0.08047186571036055	-0.2388148897854291	0.08325475121999527	-0.009217836599563052	-0.2711006976266961	-0.005956479799434292	-0.01878906882913644	0.2085613094013924	-36.8464931839734	23.95741033184304	-14.7755867907196	1.75706850275355	-536.8209153611353	-27.64215426706109	-0.02450982794647903	1.519148320271589	0.3644913626420492	1.808849358065576	-6.335405704096031	-0.1743198203064153	-1.562657051691551	0.3306981889076008	-5.264337357989699	-5.264337357983923	-0.6145087634335008	0.007616239761281757	-0.8710575694368479	-0.7043696469729058	-1.197674452419719e-08	-2.932977031471981e-07	-6.144971596779076e-08	-4.365220362139435e-08	-3.650671902139612e-08	-1.889835382641024e-07	-1.882828970125137e-08
1.08	-0.4578442472008115	-0.008468782776494876	0.6222625195282532	1.639346325235566	-0.3469152420963307	0.1165525443709422	-0.436080033330572	1.409793143133503	1.409793143133451	0.04016439285529771	-0.1738400303919256	0.3937963354865943	0.2247649433393626	-0.01386861935348563	0.03302264658734925	0.1898358163386011	-0.5212235851530795	-0.01726280250534437	-0.1918966320197725	0.009586309345651488	-0.6016312654573267	-0.6016312654572528	-0.05509185723500284	0.002677451424512957	-0.1155918452244341	-0.08755700853225386	-0.2389783619529965	0.08332965362546724	-0.009237329563364691	-0.2690104852898403	-0.006710253263673373	-0.01860551999236386	0.2087395133144748	-36.97669507025933	23.78307376536957	-14.61367232604448	1.575261011089415	-536.2340484443042	-27.5264764725789	-0.02456099176193393	1.532041298911551	0.3796272842605981	1.785789534237628	-6.307538599756509	-0.1866872380724106	-1.58345256798476	0.3862311219123418	-5.237702581830765	-5.237702581831068	-0.6025392534193497	-0.04699481609441916	-0.8800208097165481	-0.7217998912646733	-1.259301196992434e-08	-3.160745921655621e-07	-6.949717599014156e-08	-4.772150070913763e-08	-3.947321726099152e-08	-2.037895672589129e-07	-1.985711677327625e-08
